<svg width="27" height="27" viewBox="0 0 27 27" fill="none" xmlns="http://www.w3.org/2000/svg">
<path d="M9.75 19.25V20.375C9.75 21.2701 10.1056 22.1286 10.7385 22.7615C11.3714 23.3944 12.2299 23.75 13.125 23.75C14.0201 23.75 14.8786 23.3944 15.5115 22.7615C16.1444 22.1286 16.5 21.2701 16.5 20.375V19.25M23.2501 7.69288C22.5121 6.08778 21.4406 4.65841 20.1068 3.5M3 7.69288C3.73727 6.088 4.80804 4.65863 6.141 3.5M10.875 5.75C10.875 5.15326 11.1121 4.58097 11.534 4.15901C11.956 3.73705 12.5283 3.5 13.125 3.5C13.7217 3.5 14.294 3.73705 14.716 4.15901C15.1379 4.58097 15.375 5.15326 15.375 5.75C16.667 6.36091 17.7683 7.31187 18.5611 8.50096C19.3538 9.69006 19.808 11.0725 19.875 12.5V15.875C19.9597 16.5744 20.2074 17.2442 20.5982 17.8304C20.989 18.4166 21.5119 18.9028 22.125 19.25H4.125C4.73806 18.9028 5.26104 18.4166 5.65184 17.8304C6.04264 17.2442 6.29034 16.5744 6.375 15.875V12.5C6.44201 11.0725 6.89621 9.69006 7.68894 8.50096C8.48167 7.31187 9.58304 6.36091 10.875 5.75Z" stroke="black" stroke-width="2" stroke-linecap="round" stroke-linejoin="round"/>
</svg>
